<svg width="30" height="30" xmlns="http://www.w3.org/2000/svg">

 <g>
  <title>background</title>
  <rect fill="none" id="canvas_background" height="402" width="582" y="-1" x="-1"/>
 </g>
 <g>
  <title>Layer 1</title>
  <polygon fill="#83b6fd" transform="rotate(-45 16.610149383544915,20.766090393066406) " id="svg_1" points="15.610150218009949,24.766090095043182 12.610150218009949,21.766090095043182 12.610150218009949,16.766090095043182 20.61015021800995,24.766090095043182 "/>
  <path fill="#83b6fd" transform="rotate(-45 16.32736206054687,13.002069473266598) " id="svg_2" d="m25.512134,3.817299c0,0 -8.979,-0.021 -15.979,6.979c-2.99,2.99 -3,8 -1,10s7.01,1.99 10,-1c7,-7 6.979,-15.979 6.979,-15.979zm-9.979,7.979c0,-1.105 0.895,-2 2,-2c1.105,0 2,0.895 2,2s-0.895,2 -2,2c-1.105,0 -2,-0.895 -2,-2z"/>
  <path fill="#83b6fd" transform="rotate(-45 23.25355911254882,20.532924652099602) " id="svg_3" d="m26.564435,16.370925c0,0 0.757,3.784 -0.757,5.297c-2.27,2.27 -6.054,3.027 -6.054,3.027l1,-7l5.811,-1.324z"/>
  <path fill="#83b6fd" transform="rotate(-45 9.383254051208482,20.95408630371093) " id="svg_4" d="m13.545254,17.643211c0,0 -3.784,-0.757 -5.297,0.757c-2.27,2.27 -3.027,6.054 -3.027,6.054l7,-1l1.324,-5.811z"/>
  <path fill="#83b6fd" transform="rotate(-45 16.55285263061523,26.102350234985348) " id="svg_5" d="m18.594659,25.9443c-0.045,0.064 -0.072,0.138 -0.13,0.195c-0.975,0.975 -2.438,0.488 -2.438,0.488s-0.488,-1.463 0.488,-2.438c0.058,-0.058 0.131,-0.084 0.195,-0.13l-0.457,-0.458c-0.38,0.1 -0.741,0.29 -1.038,0.587c-1.366,1.366 -1.149,4.4 -1.149,4.4s3.016,0.235 4.4,-1.149c0.297,-0.297 0.487,-0.658 0.587,-1.038l-0.458,-0.457z"/>
  <ellipse ry="1.049538" rx="1.09152" id="svg_6" cy="11.234257" cx="16.322418" stroke-opacity="null" stroke-width="null" stroke="null" fill="#000000"/>
  <ellipse stroke="null" ry="0.284443" rx="0.367782" id="svg_7" cy="10.903092" cx="16.768164" stroke-opacity="null" stroke-width="null" fill="#ffffff"/>
  <ellipse stroke="null" ry="0.284443" rx="0.367782" id="svg_8" cy="11.109875" cx="16.974946" stroke-opacity="null" stroke-width="null" fill="#ffffff"/>
  <ellipse stroke="null" ry="2.253929" rx="0.289495" id="svg_9" cy="7.009926" cx="18.66005" stroke-opacity="null" stroke-width="null" fill="#ffffff"/>
  <path transform="rotate(115 16.55062866210937,16.748565673828125) " id="svg_12" d="m15.516956,15.219189c3.722084,-0.082713 1.282051,3.019024 1.282051,3.06038" stroke-opacity="null" stroke-width="null" stroke="null" fill="#ffffff"/>
 </g>
</svg>